<mxfile host="Electron" modified="2024-10-21T07:09:37.038Z" agent="Mozilla/5.0 (Windows NT 10.0; Win64; x64) AppleWebKit/537.36 (KHTML, like Gecko) draw.io/24.5.3 Chrome/124.0.6367.207 Electron/30.0.6 Safari/537.36" etag="EMxzsAe2iilVDwj3gos9" version="24.5.3" type="device">
  <diagram name="Seite-1" id="gCVHBd_p05oyl3W1I4jC">
    <mxGraphModel dx="3728" dy="1244" grid="1" gridSize="10" guides="1" tooltips="1" connect="1" arrows="1" fold="1" page="1" pageScale="1" pageWidth="827" pageHeight="1169" math="0" shadow="0">
      <root>
        <mxCell id="0" />
        <mxCell id="1" parent="0" />
        <mxCell id="bvi_fsvsC1UmlpESNVgQ-41" value="&lt;font face=&quot;Helvetica&quot;&gt;Werkstoff&lt;/font&gt;" style="rounded=0;whiteSpace=wrap;html=1;hachureGap=4;fontFamily=Architects Daughter;fontSource=https%3A%2F%2Ffonts.googleapis.com%2Fcss%3Ffamily%3DArchitects%2BDaughter;fillColor=#e1d5e7;strokeColor=#9673a6;align=center;spacingLeft=6;fontStyle=0" parent="1" vertex="1">
          <mxGeometry x="-1410" y="370" width="140" height="30" as="geometry" />
        </mxCell>
        <mxCell id="bvi_fsvsC1UmlpESNVgQ-42" value="&lt;font face=&quot;Helvetica&quot;&gt;Prozess&lt;/font&gt;" style="rounded=0;whiteSpace=wrap;html=1;hachureGap=4;fontFamily=Architects Daughter;fontSource=https%3A%2F%2Ffonts.googleapis.com%2Fcss%3Ffamily%3DArchitects%2BDaughter;fillColor=#b0e3e6;strokeColor=#0e8088;align=center;spacingLeft=6;" parent="1" vertex="1">
          <mxGeometry x="-1210" y="370" width="140" height="30" as="geometry" />
        </mxCell>
        <mxCell id="bvi_fsvsC1UmlpESNVgQ-43" value="&lt;font face=&quot;Helvetica&quot;&gt;Produkt&lt;/font&gt;" style="rounded=0;whiteSpace=wrap;html=1;hachureGap=4;fontFamily=Architects Daughter;fontSource=https%3A%2F%2Ffonts.googleapis.com%2Fcss%3Ffamily%3DArchitects%2BDaughter;fillColor=#d5e8d4;strokeColor=#82b366;align=center;spacingLeft=6;" parent="1" vertex="1">
          <mxGeometry x="-1320" y="480" width="160" height="30" as="geometry" />
        </mxCell>
        <mxCell id="DGeMn6_Ydy-I_4nYMSbc-4" value="" style="endArrow=classic;html=1;rounded=0;exitX=0.5;exitY=1;exitDx=0;exitDy=0;entryX=0.25;entryY=0;entryDx=0;entryDy=0;" parent="1" source="bvi_fsvsC1UmlpESNVgQ-41" target="bvi_fsvsC1UmlpESNVgQ-43" edge="1">
          <mxGeometry width="50" height="50" relative="1" as="geometry">
            <mxPoint x="-1180" y="620" as="sourcePoint" />
            <mxPoint x="-1130" y="570" as="targetPoint" />
            <Array as="points">
              <mxPoint x="-1340" y="440" />
            </Array>
          </mxGeometry>
        </mxCell>
        <mxCell id="DGeMn6_Ydy-I_4nYMSbc-5" value="" style="endArrow=classic;html=1;rounded=0;exitX=0.5;exitY=1;exitDx=0;exitDy=0;entryX=0.75;entryY=0;entryDx=0;entryDy=0;" parent="1" source="bvi_fsvsC1UmlpESNVgQ-42" target="bvi_fsvsC1UmlpESNVgQ-43" edge="1">
          <mxGeometry width="50" height="50" relative="1" as="geometry">
            <mxPoint x="-1330" y="400" as="sourcePoint" />
            <mxPoint x="-1290" y="510" as="targetPoint" />
            <Array as="points">
              <mxPoint x="-1140" y="440" />
            </Array>
          </mxGeometry>
        </mxCell>
        <mxCell id="DGeMn6_Ydy-I_4nYMSbc-6" value="" style="endArrow=classic;startArrow=classic;html=1;rounded=0;entryX=0;entryY=0.5;entryDx=0;entryDy=0;" parent="1" source="bvi_fsvsC1UmlpESNVgQ-41" target="bvi_fsvsC1UmlpESNVgQ-42" edge="1">
          <mxGeometry width="50" height="50" relative="1" as="geometry">
            <mxPoint x="-1220" y="620" as="sourcePoint" />
            <mxPoint x="-1170" y="570" as="targetPoint" />
          </mxGeometry>
        </mxCell>
        <mxCell id="DGeMn6_Ydy-I_4nYMSbc-8" value="und" style="text;html=1;align=center;verticalAlign=middle;whiteSpace=wrap;rounded=0;" parent="1" vertex="1">
          <mxGeometry x="-1269" y="361" width="60" height="30" as="geometry" />
        </mxCell>
        <mxCell id="DGeMn6_Ydy-I_4nYMSbc-9" value="bestimmen die Eigenschaften von" style="text;html=1;align=center;verticalAlign=middle;whiteSpace=wrap;rounded=0;" parent="1" vertex="1">
          <mxGeometry x="-1349" y="420" width="220" height="30" as="geometry" />
        </mxCell>
      </root>
    </mxGraphModel>
  </diagram>
</mxfile>
